<?xml version="1.0" standalone="no"?>
<!DOCTYPE svg PUBLIC "-//W3C//DTD SVG 20010904//EN"
 "http://www.w3.org/TR/2001/REC-SVG-20010904/DTD/svg10.dtd">
<svg version="1.0" xmlns="http://www.w3.org/2000/svg"
 width="900.000000pt" height="900.000000pt" viewBox="0 0 900.000000 900.000000"
 preserveAspectRatio="xMidYMid meet">
<metadata>
Created by potrace 1.10, written by Peter Selinger 2001-2011
</metadata>
<g transform="translate(0.000000,900.000000) scale(0.100000,-0.100000)"
fill="#ffffff" stroke="none">
<path d="M4250 6322 c-44 -46 -65 -78 -121 -192 -55 -112 -149 -379 -149 -423
0 -10 -5 -27 -11 -38 -11 -21 -12 -28 -52 -254 -37 -211 -48 -305 -54 -475 -5
-147 -4 -157 17 -192 34 -58 75 -78 158 -78 39 0 86 6 104 14 18 8 67 28 108
44 115 46 301 122 338 138 18 8 59 14 91 14 69 0 100 -22 152 -110 95 -161
187 -254 304 -310 64 -31 78 -34 167 -34 129 -1 139 8 72 72 -28 26 -70 74
-94 107 -51 68 -180 318 -180 347 0 46 104 98 195 98 41 0 119 -17 152 -33 53
-25 38 27 -29 99 -75 81 -174 120 -325 129 -57 3 -119 11 -137 19 -41 17 -79
63 -113 134 -14 32 -52 113 -84 181 -33 68 -59 128 -59 133 0 5 -6 22 -14 36
-16 32 -44 93 -81 182 -116 271 -229 440 -296 440 -7 0 -33 -21 -59 -48z m117
-611 c24 -25 83 -144 129 -256 6 -16 28 -68 48 -115 43 -99 49 -169 19 -202
-42 -46 -172 -98 -247 -98 -41 0 -81 25 -107 67 -61 101 0 490 95 601 24 27
40 28 63 3z"/>
<path d="M5198 6266 c-43 -32 -44 -97 -3 -236 7 -25 20 -70 29 -100 64 -225
100 -339 131 -415 9 -22 20 -49 24 -60 29 -73 112 -231 152 -290 48 -71 135
-178 149 -183 17 -6 18 31 4 139 -9 63 -19 146 -24 184 -5 39 -19 120 -31 180
-12 61 -23 142 -26 182 -5 66 -3 72 17 83 43 23 154 -14 216 -71 11 -10 24
-19 28 -19 18 0 137 -101 241 -205 122 -122 198 -226 240 -331 37 -93 42 -140
16 -181 -41 -65 -58 -68 -336 -67 -137 1 -329 9 -425 18 -217 20 -360 21 -360
4 0 -7 10 -18 23 -24 12 -6 65 -33 117 -60 52 -28 133 -65 180 -83 47 -19 93
-37 102 -42 10 -5 34 -13 55 -18 21 -6 70 -19 108 -30 215 -61 499 -91 673
-70 181 21 293 73 331 155 35 73 29 113 -36 273 -137 333 -436 658 -880 957
-52 35 -97 64 -99 64 -2 0 -33 18 -70 40 -79 49 -278 150 -354 180 -30 12 -65
26 -78 31 -33 13 -94 11 -114 -5z"/>
<path d="M1755 5728 c-52 -18 -102 -76 -154 -182 -27 -56 -56 -119 -64 -141
-9 -22 -27 -70 -41 -106 -27 -71 -147 -431 -171 -514 -78 -270 -100 -352 -120
-450 -9 -44 -23 -102 -31 -129 -8 -26 -14 -57 -14 -68 0 -10 -6 -47 -14 -81
-26 -111 -70 -410 -86 -582 -5 -61 -10 -185 -10 -275 0 -213 20 -319 62 -320
6 0 68 95 68 106 0 3 15 37 34 77 43 94 182 480 216 602 4 17 24 75 45 130 20
55 39 109 42 120 2 11 9 29 13 40 5 11 25 63 45 115 124 326 266 604 363 713
64 70 109 97 163 97 43 0 52 -4 93 -46 25 -25 46 -50 46 -55 0 -12 35 -63 70
-102 31 -36 91 -67 127 -67 79 0 192 90 308 244 111 147 186 195 283 182 39
-5 100 -30 112 -45 3 -4 21 -19 40 -35 19 -16 63 -60 98 -100 65 -73 190 -186
206 -186 5 0 17 -6 25 -13 19 -16 155 -73 191 -81 14 -2 43 -9 65 -15 22 -6
96 -11 165 -11 185 0 192 19 25 68 -121 35 -194 75 -269 148 -60 59 -156 172
-196 230 -54 78 -170 255 -170 259 0 2 -13 24 -29 47 -52 77 -146 223 -151
235 -16 39 -101 125 -144 148 -63 32 -94 32 -142 -1 -53 -36 -77 -71 -115
-166 -39 -99 -102 -218 -137 -259 -20 -23 -54 -50 -75 -59 -37 -17 -43 -17
-85 -2 -61 23 -221 173 -422 396 -53 58 -141 123 -185 135 -46 13 -41 13 -80
-1z"/>
<path d="M7665 5582 c-137 -53 -303 -215 -450 -437 -118 -179 -248 -433 -326
-635 -17 -47 -38 -99 -46 -117 -7 -17 -13 -40 -13 -50 0 -10 -4 -23 -8 -28
-11 -12 -35 -107 -63 -244 -18 -92 -20 -129 -16 -300 5 -219 15 -270 70 -360
70 -113 179 -162 405 -184 241 -24 438 9 625 104 89 45 216 143 203 156 -4 4
-98 8 -209 9 -164 2 -216 7 -279 23 -106 27 -180 66 -237 122 -65 66 -96 128
-116 236 -17 86 -17 101 -1 260 17 171 36 294 61 393 22 88 82 302 96 340 40
116 57 159 98 255 47 110 132 269 196 367 35 54 61 99 57 102 -4 2 -25 -3 -47
-12z"/>
<path d="M3055 4554 c-138 -20 -326 -75 -465 -136 -92 -41 -238 -118 -282
-149 -14 -11 -28 -19 -31 -19 -10 0 -212 -138 -288 -196 -172 -132 -391 -351
-472 -472 -57 -84 -100 -178 -105 -232 -11 -113 68 -228 200 -292 67 -33 99
-43 258 -79 33 -7 158 -14 310 -17 209 -3 270 -1 340 13 117 22 219 46 255 57
17 6 46 14 65 18 19 5 80 25 135 45 55 20 113 40 128 45 16 5 34 13 40 18 7 4
39 19 72 32 87 34 330 160 404 208 34 23 66 42 70 42 5 0 32 -13 62 -28 50
-27 91 -42 194 -72 22 -7 112 -14 200 -17 138 -5 174 -2 265 17 178 36 254 69
363 154 147 116 227 273 227 447 0 110 -30 190 -109 293 -159 206 -471 268
-841 168 -56 -15 -169 -70 -245 -120 -191 -126 -305 -315 -305 -509 0 -71 4
-92 30 -146 17 -35 30 -71 30 -79 0 -8 -17 -22 -37 -31 -380 -157 -576 -213
-932 -267 -309 -46 -527 -4 -602 116 -31 51 -26 138 13 226 38 87 84 152 166
234 100 102 160 143 326 227 46 22 132 47 167 47 58 0 94 -36 94 -93 0 -37 -8
-56 -42 -106 -24 -33 -43 -62 -43 -66 0 -11 76 -4 104 10 15 8 34 15 40 15 22
0 163 99 215 152 148 148 231 305 231 433 -1 90 -19 109 -107 111 -37 1 -81 0
-98 -2z m1330 -344 c30 -24 39 -70 25 -122 -16 -64 -6 -74 49 -47 68 33 101
34 141 7 34 -23 35 -27 34 -84 -1 -79 -45 -170 -118 -246 -61 -63 -94 -84
-176 -110 -161 -52 -312 8 -390 153 -32 59 -35 71 -34 149 0 77 3 91 34 145
71 128 177 179 349 169 41 -2 80 -9 86 -14z"/>
<path d="M5620 4436 c-87 -17 -187 -53 -245 -89 -67 -41 -161 -126 -189 -171
-63 -101 -71 -130 -70 -256 1 -110 2 -118 36 -191 26 -55 56 -98 108 -153 40
-42 77 -76 81 -76 5 0 28 -13 51 -30 22 -16 46 -30 53 -30 6 0 16 -5 23 -12
13 -13 65 -33 142 -54 88 -24 375 -30 485 -10 173 32 303 89 399 175 107 96
164 216 153 320 -22 196 -170 379 -398 490 -99 48 -166 67 -299 86 -114 17
-241 17 -330 1z m253 -209 c21 -18 30 -36 37 -82 12 -76 23 -86 57 -53 40 37
107 68 146 68 38 0 90 -31 121 -73 16 -22 22 -47 24 -106 4 -69 0 -86 -27
-152 -35 -83 -48 -101 -106 -145 -72 -55 -119 -69 -225 -68 -102 0 -159 18
-227 70 -106 81 -160 260 -115 387 46 133 230 223 315 154z"/>
<path d="M3738 2963 c-16 -4 -18 -20 -18 -148 0 -124 2 -144 17 -149 24 -10
36 8 43 62 l5 47 48 3 c80 5 74 58 -6 64 -39 3 -42 5 -42 33 0 29 2 30 47 33
53 3 78 23 58 47 -12 15 -108 20 -152 8z"/>
<path d="M4188 2963 c-21 -5 -20 6 -19 -157 0 -95 3 -131 13 -137 15 -10 139
-12 162 -3 21 8 21 40 0 48 -9 3 -37 6 -64 6 -41 0 -50 3 -55 21 -10 29 5 40
62 47 50 5 65 16 56 39 -3 8 -21 13 -48 13 -40 0 -75 18 -75 39 0 19 28 31 71
31 57 0 85 24 54 46 -18 13 -117 18 -157 7z"/>
<path d="M4663 2959 c-23 -12 -33 -37 -33 -82 0 -35 48 -83 94 -95 24 -6 32
-14 34 -35 3 -20 -1 -27 -15 -28 -31 -2 -47 2 -64 17 -8 8 -25 14 -37 14 -30
0 -29 -34 3 -65 20 -20 34 -25 78 -25 68 0 97 26 97 87 0 45 -8 55 -79 93 -49
27 -60 54 -28 74 15 9 22 6 41 -17 27 -33 59 -33 64 -1 5 37 -29 66 -84 70
-27 2 -59 -1 -71 -7z"/>
<path d="M5083 2963 c-7 -2 -13 -13 -13 -24 0 -14 9 -21 31 -26 40 -8 48 -30
42 -123 -5 -80 7 -130 31 -130 24 0 28 17 27 111 -2 114 4 139 35 139 28 0 49
31 32 48 -12 12 -160 16 -185 5z"/>
<path d="M5871 2957 c-8 -10 -7 -28 4 -68 8 -30 17 -65 21 -79 3 -14 15 -53
26 -87 18 -58 22 -63 48 -63 31 0 44 13 53 50 3 14 16 59 28 100 31 110 35
148 14 156 -25 10 -37 -9 -60 -97 -11 -44 -24 -81 -29 -82 -12 -3 -44 90 -45
130 -1 21 -8 36 -20 43 -25 13 -26 13 -40 -3z"/>
<path d="M6406 2957 c-9 -7 -21 -28 -26 -47 -4 -19 -20 -73 -34 -120 -15 -47
-25 -94 -24 -105 4 -30 40 -25 56 7 24 50 91 49 117 -2 15 -30 48 -40 60 -20
4 6 0 32 -9 58 -9 26 -27 85 -41 132 -14 46 -31 90 -37 97 -13 17 -39 17 -62
0z m44 -128 c14 -25 6 -49 -14 -49 -21 0 -29 17 -22 46 8 29 22 31 36 3z"/>
<path d="M6832 2958 c-18 -18 -17 -272 2 -287 9 -7 41 -11 82 -9 58 3 69 6 72
22 5 24 -14 36 -61 36 -50 0 -61 27 -54 138 4 64 2 86 -10 97 -17 18 -16 18
-31 3z"/>
<path d="M5540 2817 c0 -125 2 -146 16 -151 38 -15 45 10 42 153 l-3 136 -27
3 -28 3 0 -144z"/>
</g>
</svg>
